<svg xmlns="http://www.w3.org/2000/svg" viewBox="0 0 369 369" fill="none" role="img" aria-label="Integrated Mindfulness Institute">
  <circle cx="184.5" cy="184.5" r="168" stroke="#F7B42D" stroke-width="4.5"/>
  <g stroke="#E62D3C" stroke-linecap="round" stroke-linejoin="round">
    <path d="M63 95h14M70 95v179M63 274h14" stroke-width="13"/>
    <path d="M292 95h14M299 95v179M292 274h14" stroke-width="13"/>
    <circle cx="184.5" cy="88" r="15" stroke-width="13"/>
    <path d="M109 198C109 148 132 108 184.5 128C237 108 260 148 260 198" stroke-width="14"/>
    <path d="M142 281c0-20 16-32 42.5-32s42.5 12 42.5 32c0 20-16 32-42.5 32s-42.5-12-42.5-32zm84 0c0-20 16-32 42.5-32s42.5 12 42.5 32c0 20-16 32-42.5 32s-42.5-12-42.5-32z" stroke-width="12"/>
  </g>
</svg>
